<svg width="316" height="42" viewBox="0 0 316 42" fill="none" xmlns="http://www.w3.org/2000/svg">
<path d="M2.55998 32C1.97331 32 1.47998 31.8 1.07998 31.4C0.67998 31 0.47998 30.5067 0.47998 29.92V2.84001C0.47998 2.22668 0.67998 1.73334 1.07998 1.36001C1.47998 0.96001 1.97331 0.76001 2.55998 0.76001H20.64C21.2533 0.76001 21.7466 0.946676 22.12 1.32001C22.4933 1.66668 22.68 2.13334 22.68 2.72001C22.68 3.28001 22.4933 3.73334 22.12 4.08001C21.7466 4.42668 21.2533 4.60001 20.64 4.60001H4.63998V14.32H16.12C16.7333 14.32 17.2267 14.5067 17.6 14.88C17.9733 15.2267 18.16 15.68 18.16 16.24C18.16 16.8 17.9733 17.2667 17.6 17.64C17.2267 17.9867 16.7333 18.16 16.12 18.16H4.63998V29.92C4.63998 30.5067 4.43998 31 4.03998 31.4C3.63998 31.8 3.14665 32 2.55998 32Z" fill="#282626"/>
<path d="M29.56 18.32C29.56 16.72 29.9466 15.2933 30.72 14.04C31.52 12.76 32.5867 11.7467 33.92 11C35.2533 10.2533 36.72 9.88001 38.32 9.88001C39.92 9.88001 41.1066 10.1467 41.88 10.68C42.68 11.1867 42.9867 11.8 42.8 12.52C42.72 12.8933 42.56 13.1867 42.32 13.4C42.1066 13.5867 41.8533 13.7067 41.56 13.76C41.2667 13.8133 40.9467 13.8 40.6 13.72C38.8933 13.3733 37.36 13.3467 36 13.64C34.64 13.9333 33.56 14.48 32.76 15.28C31.9867 16.08 31.6 17.0933 31.6 18.32H29.56ZM29.6 32C28.96 32 28.4666 31.84 28.12 31.52C27.7733 31.1733 27.6 30.6667 27.6 30V12.12C27.6 11.48 27.7733 10.9867 28.12 10.64C28.4666 10.2933 28.96 10.12 29.6 10.12C30.2666 10.12 30.76 10.2933 31.08 10.64C31.4266 10.96 31.6 11.4533 31.6 12.12V30C31.6 30.64 31.4266 31.1333 31.08 31.48C30.76 31.8267 30.2666 32 29.6 32Z" fill="#282626"/>
<path d="M49.4931 32C48.9064 32 48.4131 31.8133 48.0131 31.44C47.6398 31.04 47.4531 30.5467 47.4531 29.96V12.16C47.4531 11.5467 47.6398 11.0533 48.0131 10.68C48.4131 10.3067 48.9064 10.12 49.4931 10.12C50.1064 10.12 50.5998 10.3067 50.9731 10.68C51.3464 11.0533 51.5331 11.5467 51.5331 12.16V29.96C51.5331 30.5467 51.3464 31.04 50.9731 31.44C50.5998 31.8133 50.1064 32 49.4931 32ZM49.4931 6.56001C48.7731 6.56001 48.1464 6.30668 47.6131 5.80001C47.1064 5.26668 46.8531 4.64001 46.8531 3.92001C46.8531 3.20001 47.1064 2.58668 47.6131 2.08001C48.1464 1.54668 48.7731 1.28001 49.4931 1.28001C50.2131 1.28001 50.8264 1.54668 51.3331 2.08001C51.8664 2.58668 52.1331 3.20001 52.1331 3.92001C52.1331 4.64001 51.8664 5.26668 51.3331 5.80001C50.8264 6.30668 50.2131 6.56001 49.4931 6.56001Z" fill="#282626"/>
<path d="M69.4034 32.16C67.1901 32.16 65.2168 31.6933 63.4834 30.76C61.7767 29.8 60.4301 28.4933 59.4434 26.84C58.4834 25.16 58.0034 23.24 58.0034 21.08C58.0034 18.8933 58.4568 16.9733 59.3634 15.32C60.2968 13.64 61.5768 12.3333 63.2034 11.4C64.8301 10.44 66.6967 9.96001 68.8034 9.96001C70.8834 9.96001 72.6701 10.4267 74.1634 11.36C75.6567 12.2667 76.7901 13.5333 77.5634 15.16C78.3634 16.76 78.7634 18.6133 78.7634 20.72C78.7634 21.2267 78.5901 21.6533 78.2434 22C77.8968 22.32 77.4567 22.48 76.9234 22.48H60.8034V19.28H76.8034L75.1634 20.4C75.1367 19.0667 74.8701 17.88 74.3634 16.84C73.8568 15.7733 73.1367 14.9333 72.2034 14.32C71.2701 13.7067 70.1367 13.4 68.8034 13.4C67.2834 13.4 65.9767 13.7333 64.8834 14.4C63.8167 15.0667 63.0034 15.9867 62.4434 17.16C61.8834 18.3067 61.6034 19.6133 61.6034 21.08C61.6034 22.5467 61.9368 23.8533 62.6034 25C63.2701 26.1467 64.1901 27.0533 65.3634 27.72C66.5368 28.3867 67.8834 28.72 69.4034 28.72C70.2301 28.72 71.0701 28.5733 71.9234 28.28C72.8034 27.96 73.5101 27.6 74.0434 27.2C74.4434 26.9067 74.8701 26.76 75.3234 26.76C75.8034 26.7333 76.2168 26.8667 76.5634 27.16C77.0167 27.56 77.2568 28 77.2834 28.48C77.3101 28.96 77.0967 29.3733 76.6434 29.72C75.7367 30.44 74.6034 31.0267 73.2434 31.48C71.9101 31.9333 70.6301 32.16 69.4034 32.16Z" fill="#282626"/>
<path d="M102.447 32.04C101.86 32.04 101.367 31.8533 100.967 31.48C100.594 31.08 100.407 30.5867 100.407 30V20.16C100.407 18.64 100.127 17.4 99.5672 16.44C99.0072 15.48 98.2472 14.7733 97.2872 14.32C96.3538 13.84 95.2738 13.6 94.0472 13.6C92.9272 13.6 91.9138 13.8267 91.0072 14.28C90.1005 14.7333 89.3805 15.3467 88.8472 16.12C88.3138 16.8667 88.0472 17.7333 88.0472 18.72H85.5272C85.5272 17.04 85.9272 15.5467 86.7272 14.24C87.5538 12.9067 88.6738 11.8533 90.0872 11.08C91.5005 10.3067 93.0872 9.92001 94.8472 9.92001C96.6872 9.92001 98.3272 10.32 99.7672 11.12C101.234 11.8933 102.381 13.04 103.207 14.56C104.061 16.08 104.487 17.9467 104.487 20.16V30C104.487 30.5867 104.287 31.08 103.887 31.48C103.514 31.8533 103.034 32.04 102.447 32.04ZM86.0072 32.04C85.4205 32.04 84.9272 31.8533 84.5272 31.48C84.1538 31.08 83.9672 30.5867 83.9672 30V12.16C83.9672 11.5467 84.1538 11.0533 84.5272 10.68C84.9272 10.3067 85.4205 10.12 86.0072 10.12C86.6205 10.12 87.1138 10.3067 87.4872 10.68C87.8605 11.0533 88.0472 11.5467 88.0472 12.16V30C88.0472 30.5867 87.8605 31.08 87.4872 31.48C87.1138 31.8533 86.6205 32.04 86.0072 32.04Z" fill="#282626"/>
<path d="M121.153 32.16C119.073 32.16 117.193 31.68 115.513 30.72C113.859 29.7333 112.539 28.4 111.553 26.72C110.593 25.04 110.113 23.1467 110.113 21.04C110.113 18.9333 110.553 17.0533 111.433 15.4C112.339 13.72 113.566 12.4 115.113 11.44C116.659 10.4533 118.406 9.96001 120.353 9.96001C121.926 9.96001 123.379 10.2933 124.713 10.96C126.046 11.6 127.166 12.48 128.073 13.6V2.80001C128.073 2.18668 128.259 1.69334 128.633 1.32001C129.033 0.946676 129.526 0.76001 130.113 0.76001C130.726 0.76001 131.219 0.946676 131.593 1.32001C131.966 1.69334 132.153 2.18668 132.153 2.80001V21.04C132.153 23.1467 131.659 25.04 130.673 26.72C129.713 28.4 128.406 29.7333 126.753 30.72C125.099 31.68 123.233 32.16 121.153 32.16ZM121.153 28.56C122.513 28.56 123.726 28.24 124.793 27.6C125.859 26.9333 126.699 26.0267 127.313 24.88C127.926 23.7333 128.233 22.4533 128.233 21.04C128.233 19.6 127.926 18.32 127.313 17.2C126.699 16.08 125.859 15.2 124.793 14.56C123.726 13.8933 122.513 13.56 121.153 13.56C119.819 13.56 118.606 13.8933 117.513 14.56C116.446 15.2 115.593 16.08 114.953 17.2C114.339 18.32 114.033 19.6 114.033 21.04C114.033 22.4533 114.339 23.7333 114.953 24.88C115.593 26.0267 116.446 26.9333 117.513 27.6C118.606 28.24 119.819 28.56 121.153 28.56Z" fill="#282626"/>
<path d="M144.558 32C143.384 32 142.344 31.68 141.438 31.04C140.531 30.4 139.824 29.5333 139.318 28.44C138.811 27.32 138.558 26.04 138.558 24.6V2.76001C138.558 2.17334 138.744 1.69334 139.118 1.32001C139.491 0.946676 139.971 0.76001 140.558 0.76001C141.144 0.76001 141.624 0.946676 141.998 1.32001C142.371 1.69334 142.558 2.17334 142.558 2.76001V24.6C142.558 25.5867 142.744 26.4 143.118 27.04C143.491 27.68 143.971 28 144.558 28H145.558C146.091 28 146.518 28.1867 146.838 28.56C147.184 28.9333 147.358 29.4133 147.358 30C147.358 30.5867 147.104 31.0667 146.598 31.44C146.091 31.8133 145.438 32 144.638 32H144.558Z" fill="#282626"/>
<path d="M155.27 41.6C155.003 41.6 154.683 41.52 154.31 41.36C153.137 40.8267 152.817 39.9867 153.35 38.84L165.55 11.28C166.083 10.16 166.923 9.84001 168.07 10.32C169.27 10.8267 169.603 11.6667 169.07 12.84L156.83 40.36C156.51 41.1867 155.99 41.6 155.27 41.6ZM159.99 31.12C159.483 31.3333 159.003 31.36 158.55 31.2C158.123 31.0133 157.777 30.6667 157.51 30.16L148.35 12.76C148.083 12.2533 148.043 11.7733 148.23 11.32C148.443 10.84 148.803 10.4933 149.31 10.28C149.817 10.0667 150.297 10.0533 150.75 10.24C151.203 10.4 151.55 10.7333 151.79 11.24L160.55 28.64C160.817 29.1467 160.91 29.64 160.83 30.12C160.777 30.5733 160.497 30.9067 159.99 31.12Z" fill="#282626"/>
<path d="M187.111 32C186.525 32 186.031 31.8 185.631 31.4C185.231 31 185.031 30.5067 185.031 29.92V2.84001C185.031 2.22668 185.231 1.73334 185.631 1.36001C186.031 0.96001 186.525 0.76001 187.111 0.76001C187.725 0.76001 188.218 0.96001 188.591 1.36001C188.991 1.73334 189.191 2.22668 189.191 2.84001V14.32H207.751V2.84001C207.751 2.22668 207.951 1.73334 208.351 1.36001C208.751 0.96001 209.245 0.76001 209.831 0.76001C210.445 0.76001 210.938 0.96001 211.311 1.36001C211.685 1.73334 211.871 2.22668 211.871 2.84001V29.92C211.871 30.5067 211.685 31 211.311 31.4C210.938 31.8 210.445 32 209.831 32C209.245 32 208.751 31.8 208.351 31.4C207.951 31 207.751 30.5067 207.751 29.92V18H189.191V29.92C189.191 30.5067 188.991 31 188.591 31.4C188.218 31.8 187.725 32 187.111 32Z" fill="#282626"/>
<path d="M229.395 32.16C227.235 32.16 225.328 31.6933 223.675 30.76C222.022 29.8 220.715 28.4933 219.755 26.84C218.822 25.16 218.355 23.24 218.355 21.08C218.355 18.8933 218.822 16.9733 219.755 15.32C220.715 13.64 222.022 12.3333 223.675 11.4C225.328 10.44 227.235 9.96001 229.395 9.96001C231.528 9.96001 233.422 10.44 235.075 11.4C236.728 12.3333 238.022 13.64 238.955 15.32C239.915 16.9733 240.395 18.8933 240.395 21.08C240.395 23.24 239.928 25.16 238.995 26.84C238.062 28.4933 236.768 29.8 235.115 30.76C233.462 31.6933 231.555 32.16 229.395 32.16ZM229.395 28.56C230.782 28.56 232.008 28.24 233.075 27.6C234.142 26.96 234.968 26.08 235.555 24.96C236.168 23.84 236.475 22.5467 236.475 21.08C236.475 19.6133 236.168 18.32 235.555 17.2C234.968 16.0533 234.142 15.16 233.075 14.52C232.008 13.88 230.782 13.56 229.395 13.56C228.008 13.56 226.782 13.88 225.715 14.52C224.648 15.16 223.808 16.0533 223.195 17.2C222.582 18.32 222.275 19.6133 222.275 21.08C222.275 22.5467 222.582 23.84 223.195 24.96C223.808 26.08 224.648 26.96 225.715 27.6C226.782 28.24 228.008 28.56 229.395 28.56Z" fill="#282626"/>
<path d="M255.667 32.2C253.827 32.2 252.174 31.8133 250.707 31.04C249.267 30.24 248.12 29.08 247.267 27.56C246.441 26.04 246.027 24.1733 246.027 21.96V12.12C246.027 11.5333 246.214 11.0533 246.587 10.68C246.987 10.28 247.48 10.08 248.067 10.08C248.654 10.08 249.134 10.28 249.507 10.68C249.907 11.0533 250.107 11.5333 250.107 12.12V21.96C250.107 23.4533 250.387 24.6933 250.947 25.68C251.507 26.64 252.267 27.36 253.227 27.84C254.187 28.2933 255.267 28.52 256.467 28.52C257.614 28.52 258.627 28.2933 259.507 27.84C260.414 27.3867 261.134 26.7733 261.667 26C262.2 25.2267 262.467 24.36 262.467 23.4H264.987C264.987 25.0533 264.574 26.5467 263.747 27.88C262.947 29.2133 261.84 30.2667 260.427 31.04C259.04 31.8133 257.454 32.2 255.667 32.2ZM264.507 32C263.921 32 263.427 31.8133 263.027 31.44C262.654 31.04 262.467 30.5467 262.467 29.96V12.12C262.467 11.5067 262.654 11.0133 263.027 10.64C263.427 10.2667 263.921 10.08 264.507 10.08C265.121 10.08 265.614 10.2667 265.987 10.64C266.36 11.0133 266.547 11.5067 266.547 12.12V29.96C266.547 30.5467 266.36 31.04 265.987 31.44C265.614 31.8133 265.121 32 264.507 32Z" fill="#282626"/>
<path d="M281.693 32.16C279.826 32.16 278.093 31.88 276.493 31.32C274.919 30.7333 273.693 30 272.813 29.12C272.413 28.6933 272.239 28.2133 272.293 27.68C272.373 27.12 272.639 26.6667 273.093 26.32C273.626 25.8933 274.146 25.72 274.653 25.8C275.186 25.8533 275.639 26.08 276.013 26.48C276.466 26.9867 277.186 27.4667 278.173 27.92C279.186 28.3467 280.306 28.56 281.533 28.56C283.079 28.56 284.253 28.3067 285.053 27.8C285.879 27.2933 286.306 26.64 286.333 25.84C286.359 25.04 285.973 24.3467 285.173 23.76C284.399 23.1733 282.973 22.6933 280.893 22.32C278.199 21.7867 276.239 20.9867 275.013 19.92C273.813 18.8533 273.213 17.5467 273.213 16C273.213 14.64 273.613 13.52 274.413 12.64C275.213 11.7333 276.239 11.0667 277.493 10.64C278.746 10.1867 280.053 9.96001 281.413 9.96001C283.173 9.96001 284.733 10.24 286.093 10.8C287.453 11.36 288.533 12.1333 289.333 13.12C289.706 13.5467 289.879 14 289.853 14.48C289.826 14.9333 289.599 15.32 289.173 15.64C288.746 15.9333 288.239 16.0267 287.653 15.92C287.066 15.8133 286.573 15.5733 286.173 15.2C285.506 14.56 284.786 14.12 284.013 13.88C283.239 13.64 282.346 13.52 281.333 13.52C280.159 13.52 279.159 13.72 278.333 14.12C277.533 14.52 277.133 15.1067 277.133 15.88C277.133 16.36 277.253 16.8 277.493 17.2C277.759 17.5733 278.266 17.92 279.013 18.24C279.759 18.5333 280.853 18.8267 282.293 19.12C284.293 19.52 285.866 20.0267 287.013 20.64C288.186 21.2533 289.026 21.9733 289.533 22.8C290.039 23.6 290.293 24.5333 290.293 25.6C290.293 26.8267 289.959 27.9333 289.293 28.92C288.653 29.9067 287.693 30.6933 286.413 31.28C285.159 31.8667 283.586 32.16 281.693 32.16Z" fill="#282626"/>
<path d="M305.732 32.16C303.518 32.16 301.545 31.6933 299.812 30.76C298.105 29.8 296.758 28.4933 295.772 26.84C294.812 25.16 294.332 23.24 294.332 21.08C294.332 18.8933 294.785 16.9733 295.692 15.32C296.625 13.64 297.905 12.3333 299.532 11.4C301.158 10.44 303.025 9.96001 305.132 9.96001C307.212 9.96001 308.998 10.4267 310.492 11.36C311.985 12.2667 313.118 13.5333 313.892 15.16C314.692 16.76 315.092 18.6133 315.092 20.72C315.092 21.2267 314.918 21.6533 314.572 22C314.225 22.32 313.785 22.48 313.252 22.48H297.132V19.28H313.132L311.492 20.4C311.465 19.0667 311.198 17.88 310.692 16.84C310.185 15.7733 309.465 14.9333 308.532 14.32C307.598 13.7067 306.465 13.4 305.132 13.4C303.612 13.4 302.305 13.7333 301.212 14.4C300.145 15.0667 299.332 15.9867 298.772 17.16C298.212 18.3067 297.932 19.6133 297.932 21.08C297.932 22.5467 298.265 23.8533 298.932 25C299.598 26.1467 300.518 27.0533 301.692 27.72C302.865 28.3867 304.212 28.72 305.732 28.72C306.558 28.72 307.398 28.5733 308.252 28.28C309.132 27.96 309.838 27.6 310.372 27.2C310.772 26.9067 311.198 26.76 311.652 26.76C312.132 26.7333 312.545 26.8667 312.892 27.16C313.345 27.56 313.585 28 313.612 28.48C313.638 28.96 313.425 29.3733 312.972 29.72C312.065 30.44 310.932 31.0267 309.572 31.48C308.238 31.9333 306.958 32.16 305.732 32.16Z" fill="#282626"/>
</svg>
